<svg width="20" height="20" viewBox="0 0 20 20" fill="none" xmlns="http://www.w3.org/2000/svg">
<path d="M10 11.3215L6.42259 7.74412C6.09715 7.41868 5.56951 7.41868 5.24408 7.74412C4.91864 8.06956 4.91864 8.59719 5.24408 8.92263L9.41074 13.0893C9.73618 13.4147 10.2638 13.4147 10.5893 13.0893L14.7559 8.92263C15.0814 8.59719 15.0814 8.06956 14.7559 7.74412C14.4305 7.41868 13.9028 7.41868 13.5774 7.74412L10 11.3215Z" fill="#051033" fill-opacity="0.01"/>
<mask id="mask0_982_38685" style="mask-type:alpha" maskUnits="userSpaceOnUse" x="5" y="7" width="10" height="7">
<path d="M10 11.3215L6.42259 7.74412C6.09715 7.41868 5.56951 7.41868 5.24408 7.74412C4.91864 8.06956 4.91864 8.59719 5.24408 8.92263L9.41074 13.0893C9.73618 13.4147 10.2638 13.4147 10.5893 13.0893L14.7559 8.92263C15.0814 8.59719 15.0814 8.06956 14.7559 7.74412C14.4305 7.41868 13.9028 7.41868 13.5774 7.74412L10 11.3215Z" fill="white"/>
</mask>
<g mask="url(#mask0_982_38685)">
<path fill-rule="evenodd" clip-rule="evenodd" d="M0 20H20V-9.53674e-07H0V20Z" fill="#5C6A7E"/>
</g>
</svg>
