<svg width="24" height="24" viewBox="0 0 24 24" fill="none" xmlns="http://www.w3.org/2000/svg">
<path d="M12 7.50001C12.1989 7.50001 12.3897 7.57903 12.5303 7.71968C12.671 7.86033 12.75 8.0511 12.75 8.25001V12.75C12.75 12.9489 12.671 13.1397 12.5303 13.2803C12.3897 13.421 12.1989 13.5 12 13.5C11.8011 13.5 11.6103 13.421 11.4697 13.2803C11.329 13.1397 11.25 12.9489 11.25 12.75V8.25001C11.25 8.0511 11.329 7.86033 11.4697 7.71968C11.6103 7.57903 11.8011 7.50001 12 7.50001ZM12 17.25C12.2984 17.25 12.5845 17.1315 12.7955 16.9205C13.0065 16.7095 13.125 16.4234 13.125 16.125C13.125 15.8266 13.0065 15.5405 12.7955 15.3295C12.5845 15.1185 12.2984 15 12 15C11.7016 15 11.4155 15.1185 11.2045 15.3295C10.9935 15.5405 10.875 15.8266 10.875 16.125C10.875 16.4234 10.9935 16.7095 11.2045 16.9205C11.4155 17.1315 11.7016 17.25 12 17.25ZM10.7145 3.06301C9.90935 3.59903 9.04453 4.0395 8.1375 4.37551C6.83822 4.86413 5.47307 5.15536 4.0875 5.23951C4.00256 5.24442 3.91755 5.24792 3.8325 5.25001H3.7575C3.65838 5.24902 3.56005 5.26768 3.46818 5.30493C3.37632 5.34218 3.29276 5.39727 3.22232 5.46701C3.15187 5.53675 3.09596 5.61977 3.0578 5.71125C3.01964 5.80274 3 5.90088 3 6.00001V10.1325C3.00006 12.0881 3.50988 14.0099 4.47919 15.7084C5.4485 17.4068 6.84381 18.8233 8.5275 19.818L11.6205 21.6465C11.7361 21.7149 11.8679 21.7509 12.0023 21.7509C12.1366 21.7509 12.2684 21.7149 12.384 21.6465L15.474 19.8195C17.1574 18.8246 18.5524 17.408 19.5215 15.7096C20.4905 14.0112 21.0001 12.0895 21 10.134V6.00001C21 5.9005 20.9802 5.80198 20.9418 5.7102C20.9033 5.61841 20.847 5.53519 20.7761 5.46539C20.7052 5.39559 20.6211 5.34059 20.5287 5.30362C20.4363 5.26664 20.3375 5.24842 20.238 5.25001H20.163C19.7596 5.2386 19.3571 5.20656 18.957 5.15401C17.9045 5.01711 16.8718 4.7563 15.8805 4.37701C14.972 4.03467 14.1047 3.59192 13.2945 3.05701C13.0873 2.9184 12.8871 2.76972 12.6945 2.61151C12.6373 2.5645 12.5817 2.51547 12.528 2.46451C12.3864 2.32535 12.1955 2.248 11.997 2.24941C11.7984 2.25081 11.6086 2.33086 11.469 2.47201L11.3055 2.61751C11.1825 2.72251 10.986 2.87701 10.7145 3.06301ZM4.5 10.1325V6.71551C5.9269 6.5979 7.33042 6.28186 8.67 5.77651C9.68705 5.39899 10.6566 4.90415 11.559 4.30201C11.7113 4.19917 11.8604 4.09162 12.006 3.97951C12.1335 4.07551 12.2835 4.18351 12.456 4.30051C13.092 4.72801 14.043 5.27551 15.339 5.77501C16.6738 6.28708 18.075 6.60531 19.5 6.72001V10.1355C19.5 11.8302 19.0583 13.4957 18.2184 14.9677C17.3786 16.4397 16.1695 17.6673 14.7105 18.5295L12.0015 20.13L9.291 18.528C7.8315 17.6658 6.62201 16.4381 5.78184 14.9658C4.94167 13.4935 4.49986 11.8276 4.5 10.1325Z" fill="#4D5562"/>
</svg>
