<svg width="137" height="40" viewBox="0 0 137 40" fill="none" xmlns="http://www.w3.org/2000/svg">
<path d="M28.0737 23.0547C23.9346 30.6785 17.9148 36.7864 9.61162 39.9819H0V26.0993L28.0737 23.0547Z" fill="#2C2E36"/>
<path d="M34.9364 0C34.1848 7.03736 32.3251 13.9115 29.4261 20.368L0 23.5635V0H34.9364Z" fill="#2C2E36"/>
<path d="M39.9871 0V19.2231L32.3633 20.0471C35.0687 13.6592 36.801 6.90171 37.5025 0H39.9871Z" fill="#8D9BB5"/>
<path d="M39.9868 21.7578V39.9997H15.3477C20.2594 37.1497 24.4685 33.233 27.6641 28.5388C28.9435 26.6895 30.0932 24.7537 31.1049 22.7454L39.9868 21.7578Z" fill="#8D9BB5"/>
<path d="M64.4438 23.3809L65.2113 29.5706H61.8145L61.2987 24.4754C61.2981 23.6502 60.9832 22.8562 60.418 22.2549C59.7355 21.7681 58.8999 21.5447 58.0655 21.6259H53.2974V29.5957H49.9824V10.0957H59.0593C61.0135 10.0957 62.5127 10.5717 63.5569 11.5236C64.0785 12.0114 64.488 12.6065 64.7573 13.2679C65.0267 13.9292 65.1493 14.6411 65.1169 15.3545C65.1627 16.4769 64.8353 17.5829 64.1859 18.4996C63.5199 19.3565 62.5811 19.9601 61.5252 20.2106C62.3004 20.3266 63.0126 20.7044 63.5436 21.2811C64.0745 21.8578 64.3922 22.5987 64.4438 23.3809ZM53.2974 18.833H58.034C59.0394 18.9007 60.036 18.6086 60.8458 18.009C61.1697 17.7294 61.4255 17.3795 61.5934 16.9859C61.7613 16.5923 61.8369 16.1656 61.8145 15.7382C61.8374 15.3491 61.7743 14.9595 61.6297 14.5975C61.4851 14.2355 61.2626 13.9098 60.9779 13.6435C60.2855 13.0944 59.4123 12.8251 58.531 12.8887H53.2974V18.833Z" fill="#2C2E36"/>
<path d="M77.7869 23.0973V15.4043H80.995V29.5386H77.9316L77.875 27.5634C77.4195 28.3127 76.7697 28.9249 75.9945 29.3347C75.2192 29.7444 74.3474 29.9367 73.4718 29.8909C72.8395 29.9312 72.2057 29.8402 71.6103 29.6237C71.0149 29.4072 70.4708 29.0699 70.0121 28.6328C69.5767 28.1525 69.2413 27.5903 69.0253 26.979C68.8094 26.3678 68.7171 25.7197 68.754 25.0724V15.4295H71.9621V24.3869C71.9621 26.1733 72.7735 27.0729 74.4027 27.0729C74.859 27.0879 75.3132 27.0033 75.7336 26.8251C76.1539 26.647 76.5305 26.3795 76.8371 26.0412C77.5182 25.2173 77.8581 24.1639 77.7869 23.0973Z" fill="#2C2E36"/>
<path d="M91.7699 17.814L88.8701 17.7071V25.5637C88.8292 25.9458 88.9373 26.3288 89.172 26.6331C89.4656 26.8646 89.8378 26.9729 90.2099 26.935H91.7699V29.5393H89.2538C87.9957 29.5393 87.0899 29.2624 86.5301 28.7026C85.906 27.9389 85.6057 26.9612 85.6935 25.9788V17.7197L83.668 17.8014V15.3923L85.6935 15.474V11.0332H88.9015V15.474L91.8013 15.3923L91.7699 17.814Z" fill="#2C2E36"/>
<path d="M97.5948 13.1588H94.3867V10.0137H97.5948V13.1588ZM97.5948 29.5136H94.3867V15.3793H97.5948V29.5136Z" fill="#2C2E36"/>
<path d="M104.634 29.539H101.426V10.0391H104.634V29.539Z" fill="#2C2E36"/>
<path d="M121.365 22.5513V23.3817H110.93C110.93 24.4828 111.325 25.5473 112.043 26.3822C112.394 26.7366 112.816 27.0131 113.281 27.1941C113.746 27.3751 114.243 27.4563 114.742 27.4326C115.469 27.4755 116.189 27.2715 116.785 26.8535C117.381 26.4355 117.818 25.8283 118.025 25.1304L121.095 25.4071C120.735 26.7711 119.918 27.9703 118.78 28.804C117.592 29.6134 116.178 30.0252 114.742 29.9802C113.777 30.0292 112.814 29.8659 111.919 29.5018C111.025 29.1377 110.221 28.5816 109.565 27.8729C108.349 26.3503 107.682 24.4624 107.672 22.514C107.662 20.5656 108.309 18.6708 109.508 17.1354C110.138 16.4501 110.911 15.9108 111.772 15.5555C112.632 15.2002 113.56 15.0374 114.49 15.0785C115.416 15.0397 116.339 15.1979 117.199 15.5427C118.059 15.8876 118.836 16.4111 119.478 17.0788C120.736 18.4123 121.365 20.2365 121.365 22.5513ZM117.038 18.4437C116.711 18.1294 116.324 17.8849 115.901 17.7249C115.477 17.5648 115.025 17.4926 114.572 17.5128C114.111 17.4886 113.651 17.5588 113.218 17.7189C112.785 17.8789 112.39 18.1255 112.056 18.4437C111.362 19.1691 110.963 20.1265 110.936 21.1297H118.189C118.119 20.1302 117.713 19.1836 117.038 18.4437Z" fill="#2C2E36"/>
<path d="M136.544 29.5396H133.285C133.105 28.7931 132.985 28.2458 132.927 27.8977C132.37 28.575 131.661 29.1113 130.857 29.4633C130.054 29.8152 129.179 29.9727 128.303 29.9232C127.029 29.9908 125.775 29.5855 124.781 28.7848C124.348 28.4007 124.006 27.9244 123.781 27.3911C123.555 26.8578 123.452 26.2808 123.479 25.7024C123.479 23.3289 124.995 21.8864 128.027 21.3748L132.43 20.6387L132.814 20.5255V19.2674C132.814 18.0094 131.883 17.3804 130.021 17.3804C129.307 17.3312 128.596 17.5144 127.995 17.9025C127.749 18.1078 127.549 18.362 127.407 18.649C127.265 18.936 127.185 19.2495 127.171 19.5694H124.158C124.435 16.5374 126.41 15.0215 130.102 15.0215C133.99 15.0215 135.936 16.6465 135.94 19.8965V26.2561C135.955 27.3767 136.159 28.4868 136.544 29.5396ZM129.121 27.5141C130.091 27.5436 131.037 27.2118 131.776 26.5832C132.116 26.2984 132.389 25.9409 132.574 25.5372C132.759 25.1334 132.852 24.6934 132.845 24.2493V22.7523L128.926 23.438C127.408 23.7148 126.651 24.4087 126.655 25.52C126.639 25.7945 126.687 26.0691 126.797 26.3215C126.906 26.5739 127.073 26.7971 127.284 26.9731C127.816 27.3589 128.465 27.55 129.121 27.5141Z" fill="#2C2E36"/>
</svg>
