<svg width="24" height="24" viewBox="0 0 24 24" fill="none" xmlns="http://www.w3.org/2000/svg">
<path d="M18 16.5H19.5V24H18V16.5ZM15 19.5H22.5V21H15V19.5ZM12 15C11.6036 15.009 11.2094 14.9376 10.8414 14.79C10.4733 14.6425 10.139 14.4218 9.85859 14.1414C9.5782 13.861 9.35755 13.5267 9.20998 13.1586C9.06241 12.7906 8.99098 12.3964 9 12C8.99098 11.6036 9.06241 11.2094 9.20998 10.8414C9.35755 10.4733 9.5782 10.139 9.85859 9.85859C10.139 9.5782 10.4733 9.35755 10.8414 9.20998C11.2094 9.06241 11.6036 8.99098 12 9C12.3964 8.99098 12.7906 9.06241 13.1586 9.20998C13.5267 9.35755 13.861 9.5782 14.1414 9.85859C14.4218 10.139 14.6425 10.4733 14.79 10.8414C14.9376 11.2094 15.009 11.6036 15 12H16.5C16.5 11.11 16.2361 10.24 15.7416 9.49994C15.2471 8.75991 14.5443 8.18314 13.7221 7.84254C12.8998 7.50195 11.995 7.41283 11.1221 7.58647C10.2492 7.7601 9.44736 8.18868 8.81802 8.81802C8.18868 9.44736 7.7601 10.2492 7.58647 11.1221C7.41283 11.995 7.50195 12.8998 7.84254 13.7221C8.18314 14.5443 8.75991 15.2471 9.49994 15.7416C10.24 16.2361 11.11 16.5 12 16.5V15Z" fill="#787486"/>
<path d="M21.9788 8.283L20.2088 5.217C20.0356 4.91625 19.7634 4.68492 19.4387 4.5625C19.114 4.44008 18.7569 4.43416 18.4282 4.54575L16.6028 5.16375C16.2882 4.95194 15.9594 4.762 15.6188 4.59525L15.2408 2.70525C15.1726 2.36535 14.9889 2.05953 14.7208 1.8398C14.4526 1.62007 14.1167 1.5 13.77 1.5H10.23C9.88323 1.50004 9.54719 1.62022 9.27905 1.84009C9.0109 2.05997 8.82722 2.36596 8.75925 2.706L8.38125 4.5945C8.03677 4.75966 7.70422 4.94862 7.386 5.16L5.571 4.54575C5.2426 4.43455 4.8858 4.44067 4.5614 4.56307C4.23701 4.68548 3.96509 4.91658 3.792 5.217L2.022 8.283C1.84861 8.58322 1.78457 8.93423 1.84076 9.27634C1.89696 9.61845 2.06993 9.93053 2.33025 10.1595L3.7785 11.4323C3.76575 11.6213 3.75 11.8088 3.75 12C3.75 12.1935 3.7575 12.3848 3.771 12.5745L2.331 13.8405C2.07044 14.0693 1.89718 14.3813 1.84071 14.7234C1.78424 15.0655 1.84803 15.4166 2.02125 15.717L3.79125 18.783C3.9644 19.0837 4.23657 19.3151 4.56129 19.4375C4.88601 19.5599 5.24315 19.5658 5.57175 19.4543L7.39725 18.8363C7.71174 19.0485 8.04052 19.2387 8.38125 19.4055L8.7585 21.294C8.82649 21.6342 9.01029 21.9403 9.27859 22.1601C9.54689 22.38 9.88311 22.5001 10.23 22.5H12V21H10.23L9.6975 18.3375C8.96087 18.0639 8.27706 17.665 7.67625 17.1585L5.091 18.033L3.321 14.967L5.36475 13.1708C5.22493 12.3952 5.22315 11.601 5.3595 10.8247L3.321 9.03225L5.091 5.967L7.66125 6.837C8.26635 6.3298 8.95548 5.93231 9.6975 5.6625L10.23 3H13.77L14.3025 5.6625C15.0391 5.93618 15.7229 6.33505 16.3238 6.8415L18.909 5.967L20.679 9.033L18.5805 10.872L19.569 12L21.669 10.1595C21.9296 9.93072 22.1028 9.61873 22.1593 9.27662C22.2158 8.9345 22.152 8.58338 21.9788 8.283Z" fill="#787486"/>
</svg>
